<mxfile host="app.diagrams.net" agent="Mozilla/5.0 (Windows NT 10.0; Win64; x64; rv:144.0) Gecko/20100101 Firefox/144.0" version="28.2.0" pages="2">
  <diagram name="Page-1" id="mrCKsDTzWILt050IC8Hd">
    <mxGraphModel dx="1385" dy="952" grid="1" gridSize="10" guides="1" tooltips="1" connect="1" arrows="1" fold="0" page="1" pageScale="1" pageWidth="850" pageHeight="1100" math="1" shadow="0">
      <root>
        <mxCell id="0" />
        <mxCell id="1" parent="0" />
        <mxCell id="rE2jyP0h0pLRF4RiZY1M-194" value="$$x_t^1$$" style="text;html=1;align=center;verticalAlign=middle;fontSize=29;" parent="1" vertex="1">
          <mxGeometry y="80" width="80" height="80" as="geometry" />
        </mxCell>
        <mxCell id="rE2jyP0h0pLRF4RiZY1M-196" value="" style="group" parent="1" vertex="1" connectable="0">
          <mxGeometry x="80" y="80" width="480" height="480" as="geometry" />
        </mxCell>
        <mxCell id="rE2jyP0h0pLRF4RiZY1M-1" value="" style="rounded=0;gradientColor=none;fillStyle=auto;fillColor=#66B2FF;" parent="rE2jyP0h0pLRF4RiZY1M-196" vertex="1">
          <mxGeometry width="40" height="40" as="geometry" />
        </mxCell>
        <mxCell id="rE2jyP0h0pLRF4RiZY1M-2" value="" style="rounded=0;gradientColor=none;fillStyle=auto;fillColor=#66B2FF;" parent="rE2jyP0h0pLRF4RiZY1M-196" vertex="1">
          <mxGeometry x="40" width="40" height="40" as="geometry" />
        </mxCell>
        <mxCell id="rE2jyP0h0pLRF4RiZY1M-6" value="" style="rounded=0;gradientColor=none;fillStyle=auto;fillColor=#CCE5FF;" parent="rE2jyP0h0pLRF4RiZY1M-196" vertex="1">
          <mxGeometry x="80" width="40" height="40" as="geometry" />
        </mxCell>
        <mxCell id="rE2jyP0h0pLRF4RiZY1M-10" value="" style="rounded=0;gradientColor=none;fillStyle=auto;fillColor=#66B2FF;" parent="rE2jyP0h0pLRF4RiZY1M-196" vertex="1">
          <mxGeometry y="40" width="40" height="40" as="geometry" />
        </mxCell>
        <mxCell id="rE2jyP0h0pLRF4RiZY1M-11" value="" style="rounded=0;gradientColor=none;fillStyle=auto;fillColor=#66B2FF;" parent="rE2jyP0h0pLRF4RiZY1M-196" vertex="1">
          <mxGeometry x="40" y="40" width="40" height="40" as="geometry" />
        </mxCell>
        <mxCell id="rE2jyP0h0pLRF4RiZY1M-12" value="" style="rounded=0;gradientColor=none;fillStyle=auto;fillColor=#CCE5FF;" parent="rE2jyP0h0pLRF4RiZY1M-196" vertex="1">
          <mxGeometry x="80" y="40" width="40" height="40" as="geometry" />
        </mxCell>
        <mxCell id="rE2jyP0h0pLRF4RiZY1M-13" value="" style="rounded=0;gradientColor=none;fillStyle=auto;fillColor=#CCE5FF;" parent="rE2jyP0h0pLRF4RiZY1M-196" vertex="1">
          <mxGeometry y="80" width="40" height="40" as="geometry" />
        </mxCell>
        <mxCell id="rE2jyP0h0pLRF4RiZY1M-14" value="" style="rounded=0;gradientColor=none;fillStyle=auto;fillColor=#CCE5FF;" parent="rE2jyP0h0pLRF4RiZY1M-196" vertex="1">
          <mxGeometry x="40" y="80" width="40" height="40" as="geometry" />
        </mxCell>
        <mxCell id="rE2jyP0h0pLRF4RiZY1M-16" value="" style="rounded=0;gradientColor=none;fillStyle=auto;fillColor=#CCE5FF;" parent="rE2jyP0h0pLRF4RiZY1M-196" vertex="1">
          <mxGeometry x="120" width="40" height="40" as="geometry" />
        </mxCell>
        <mxCell id="rE2jyP0h0pLRF4RiZY1M-17" value="" style="rounded=0;gradientColor=none;fillStyle=auto;fillColor=#CCE5FF;" parent="rE2jyP0h0pLRF4RiZY1M-196" vertex="1">
          <mxGeometry x="160" width="40" height="40" as="geometry" />
        </mxCell>
        <mxCell id="rE2jyP0h0pLRF4RiZY1M-18" value="" style="rounded=0;gradientColor=none;fillStyle=auto;fillColor=#CCE5FF;" parent="rE2jyP0h0pLRF4RiZY1M-196" vertex="1">
          <mxGeometry x="200" width="40" height="40" as="geometry" />
        </mxCell>
        <mxCell id="rE2jyP0h0pLRF4RiZY1M-19" value="" style="rounded=0;gradientColor=none;fillStyle=auto;fillColor=#CCE5FF;" parent="rE2jyP0h0pLRF4RiZY1M-196" vertex="1">
          <mxGeometry x="120" y="40" width="40" height="40" as="geometry" />
        </mxCell>
        <mxCell id="rE2jyP0h0pLRF4RiZY1M-20" value="" style="rounded=0;gradientColor=none;fillStyle=auto;fillColor=#CCE5FF;" parent="rE2jyP0h0pLRF4RiZY1M-196" vertex="1">
          <mxGeometry x="160" y="40" width="40" height="40" as="geometry" />
        </mxCell>
        <mxCell id="rE2jyP0h0pLRF4RiZY1M-21" value="" style="rounded=0;gradientColor=none;fillStyle=auto;fillColor=#CCE5FF;" parent="rE2jyP0h0pLRF4RiZY1M-196" vertex="1">
          <mxGeometry x="200" y="40" width="40" height="40" as="geometry" />
        </mxCell>
        <mxCell id="rE2jyP0h0pLRF4RiZY1M-23" value="" style="rounded=0;gradientColor=none;fillStyle=auto;fillColor=#CCE5FF;" parent="rE2jyP0h0pLRF4RiZY1M-196" vertex="1">
          <mxGeometry x="160" y="80" width="40" height="40" as="geometry" />
        </mxCell>
        <mxCell id="rE2jyP0h0pLRF4RiZY1M-24" value="" style="rounded=0;gradientColor=none;fillStyle=auto;fillColor=#CCE5FF;" parent="rE2jyP0h0pLRF4RiZY1M-196" vertex="1">
          <mxGeometry x="200" y="80" width="40" height="40" as="geometry" />
        </mxCell>
        <mxCell id="rE2jyP0h0pLRF4RiZY1M-25" value="" style="rounded=0;gradientColor=none;fillStyle=auto;fillColor=#CCE5FF;" parent="rE2jyP0h0pLRF4RiZY1M-196" vertex="1">
          <mxGeometry y="120" width="40" height="40" as="geometry" />
        </mxCell>
        <mxCell id="rE2jyP0h0pLRF4RiZY1M-26" value="" style="rounded=0;gradientColor=none;fillStyle=auto;fillColor=#CCE5FF;" parent="rE2jyP0h0pLRF4RiZY1M-196" vertex="1">
          <mxGeometry x="40" y="120" width="40" height="40" as="geometry" />
        </mxCell>
        <mxCell id="rE2jyP0h0pLRF4RiZY1M-28" value="" style="rounded=0;gradientColor=none;fillStyle=auto;fillColor=#CCE5FF;" parent="rE2jyP0h0pLRF4RiZY1M-196" vertex="1">
          <mxGeometry y="160" width="40" height="40" as="geometry" />
        </mxCell>
        <mxCell id="rE2jyP0h0pLRF4RiZY1M-29" value="" style="rounded=0;gradientColor=none;fillStyle=auto;fillColor=#CCE5FF;" parent="rE2jyP0h0pLRF4RiZY1M-196" vertex="1">
          <mxGeometry x="40" y="160" width="40" height="40" as="geometry" />
        </mxCell>
        <mxCell id="rE2jyP0h0pLRF4RiZY1M-30" value="" style="rounded=0;gradientColor=none;fillStyle=auto;fillColor=#CCE5FF;" parent="rE2jyP0h0pLRF4RiZY1M-196" vertex="1">
          <mxGeometry x="80" y="160" width="40" height="40" as="geometry" />
        </mxCell>
        <mxCell id="rE2jyP0h0pLRF4RiZY1M-31" value="" style="rounded=0;gradientColor=none;fillStyle=auto;fillColor=#CCE5FF;" parent="rE2jyP0h0pLRF4RiZY1M-196" vertex="1">
          <mxGeometry y="200" width="40" height="40" as="geometry" />
        </mxCell>
        <mxCell id="rE2jyP0h0pLRF4RiZY1M-32" value="" style="rounded=0;gradientColor=none;fillStyle=auto;fillColor=#CCE5FF;" parent="rE2jyP0h0pLRF4RiZY1M-196" vertex="1">
          <mxGeometry x="40" y="200" width="40" height="40" as="geometry" />
        </mxCell>
        <mxCell id="rE2jyP0h0pLRF4RiZY1M-33" value="" style="rounded=0;gradientColor=none;fillStyle=auto;fillColor=#CCE5FF;" parent="rE2jyP0h0pLRF4RiZY1M-196" vertex="1">
          <mxGeometry x="80" y="200" width="40" height="40" as="geometry" />
        </mxCell>
        <mxCell id="rE2jyP0h0pLRF4RiZY1M-35" value="" style="rounded=0;gradientColor=none;fillStyle=auto;fillColor=#CCE5FF;" parent="rE2jyP0h0pLRF4RiZY1M-196" vertex="1">
          <mxGeometry x="160" y="120" width="40" height="40" as="geometry" />
        </mxCell>
        <mxCell id="rE2jyP0h0pLRF4RiZY1M-36" value="" style="rounded=0;gradientColor=none;fillStyle=auto;fillColor=#CCE5FF;" parent="rE2jyP0h0pLRF4RiZY1M-196" vertex="1">
          <mxGeometry x="200" y="120" width="40" height="40" as="geometry" />
        </mxCell>
        <mxCell id="rE2jyP0h0pLRF4RiZY1M-37" value="" style="rounded=0;gradientColor=none;fillStyle=auto;fillColor=#CCE5FF;" parent="rE2jyP0h0pLRF4RiZY1M-196" vertex="1">
          <mxGeometry x="120" y="160" width="40" height="40" as="geometry" />
        </mxCell>
        <mxCell id="rE2jyP0h0pLRF4RiZY1M-40" value="" style="rounded=0;gradientColor=none;fillStyle=auto;fillColor=#CCE5FF;" parent="rE2jyP0h0pLRF4RiZY1M-196" vertex="1">
          <mxGeometry x="120" y="200" width="40" height="40" as="geometry" />
        </mxCell>
        <mxCell id="rE2jyP0h0pLRF4RiZY1M-43" value="" style="rounded=0;fillStyle=auto;fillColor=#CCFFE6;" parent="rE2jyP0h0pLRF4RiZY1M-196" vertex="1">
          <mxGeometry x="240" width="40" height="40" as="geometry" />
        </mxCell>
        <mxCell id="rE2jyP0h0pLRF4RiZY1M-44" value="" style="rounded=0;fillStyle=auto;fillColor=#CCFFE6;" parent="rE2jyP0h0pLRF4RiZY1M-196" vertex="1">
          <mxGeometry x="280" width="40" height="40" as="geometry" />
        </mxCell>
        <mxCell id="rE2jyP0h0pLRF4RiZY1M-45" value="" style="rounded=0;fillStyle=auto;fillColor=#CCFFE6;" parent="rE2jyP0h0pLRF4RiZY1M-196" vertex="1">
          <mxGeometry x="320" width="40" height="40" as="geometry" />
        </mxCell>
        <mxCell id="rE2jyP0h0pLRF4RiZY1M-46" value="" style="rounded=0;fillStyle=auto;fillColor=#CCFFE6;" parent="rE2jyP0h0pLRF4RiZY1M-196" vertex="1">
          <mxGeometry x="240" y="40" width="40" height="40" as="geometry" />
        </mxCell>
        <mxCell id="rE2jyP0h0pLRF4RiZY1M-47" value="" style="rounded=0;fillStyle=auto;fillColor=#CCFFE6;" parent="rE2jyP0h0pLRF4RiZY1M-196" vertex="1">
          <mxGeometry x="280" y="40" width="40" height="40" as="geometry" />
        </mxCell>
        <mxCell id="rE2jyP0h0pLRF4RiZY1M-48" value="" style="rounded=0;fillStyle=auto;fillColor=#CCFFE6;" parent="rE2jyP0h0pLRF4RiZY1M-196" vertex="1">
          <mxGeometry x="320" y="40" width="40" height="40" as="geometry" />
        </mxCell>
        <mxCell id="rE2jyP0h0pLRF4RiZY1M-51" value="" style="rounded=0;fillStyle=auto;fillColor=#CCFFE6;" parent="rE2jyP0h0pLRF4RiZY1M-196" vertex="1">
          <mxGeometry x="320" y="80" width="40" height="40" as="geometry" />
        </mxCell>
        <mxCell id="rE2jyP0h0pLRF4RiZY1M-52" value="" style="rounded=0;fillStyle=auto;fillColor=#CCFFE6;" parent="rE2jyP0h0pLRF4RiZY1M-196" vertex="1">
          <mxGeometry x="360" width="40" height="40" as="geometry" />
        </mxCell>
        <mxCell id="rE2jyP0h0pLRF4RiZY1M-53" value="" style="rounded=0;fillStyle=auto;fillColor=#CCFFE6;" parent="rE2jyP0h0pLRF4RiZY1M-196" vertex="1">
          <mxGeometry x="400" width="40" height="40" as="geometry" />
        </mxCell>
        <mxCell id="rE2jyP0h0pLRF4RiZY1M-54" value="" style="rounded=0;fillStyle=auto;fillColor=#CCFFE6;" parent="rE2jyP0h0pLRF4RiZY1M-196" vertex="1">
          <mxGeometry x="440" width="40" height="40" as="geometry" />
        </mxCell>
        <mxCell id="rE2jyP0h0pLRF4RiZY1M-55" value="" style="rounded=0;fillStyle=auto;fillColor=#CCFFE6;" parent="rE2jyP0h0pLRF4RiZY1M-196" vertex="1">
          <mxGeometry x="360" y="40" width="40" height="40" as="geometry" />
        </mxCell>
        <mxCell id="rE2jyP0h0pLRF4RiZY1M-56" value="" style="rounded=0;fillStyle=auto;fillColor=#CCFFE6;" parent="rE2jyP0h0pLRF4RiZY1M-196" vertex="1">
          <mxGeometry x="400" y="40" width="40" height="40" as="geometry" />
        </mxCell>
        <mxCell id="rE2jyP0h0pLRF4RiZY1M-57" value="" style="rounded=0;fillStyle=auto;fillColor=#CCFFE6;" parent="rE2jyP0h0pLRF4RiZY1M-196" vertex="1">
          <mxGeometry x="440" y="40" width="40" height="40" as="geometry" />
        </mxCell>
        <mxCell id="rE2jyP0h0pLRF4RiZY1M-58" value="" style="rounded=0;fillStyle=auto;fillColor=#CCFFE6;" parent="rE2jyP0h0pLRF4RiZY1M-196" vertex="1">
          <mxGeometry x="360" y="80" width="40" height="40" as="geometry" />
        </mxCell>
        <mxCell id="rE2jyP0h0pLRF4RiZY1M-59" value="" style="rounded=0;fillStyle=auto;fillColor=#CCFFE6;" parent="rE2jyP0h0pLRF4RiZY1M-196" vertex="1">
          <mxGeometry x="400" y="80" width="40" height="40" as="geometry" />
        </mxCell>
        <mxCell id="rE2jyP0h0pLRF4RiZY1M-60" value="" style="rounded=0;fillStyle=auto;fillColor=#CCFFE6;" parent="rE2jyP0h0pLRF4RiZY1M-196" vertex="1">
          <mxGeometry x="440" y="80" width="40" height="40" as="geometry" />
        </mxCell>
        <mxCell id="rE2jyP0h0pLRF4RiZY1M-63" value="" style="rounded=0;fillStyle=auto;fillColor=#CCFFE6;" parent="rE2jyP0h0pLRF4RiZY1M-196" vertex="1">
          <mxGeometry x="320" y="120" width="40" height="40" as="geometry" />
        </mxCell>
        <mxCell id="rE2jyP0h0pLRF4RiZY1M-64" value="" style="rounded=0;fillStyle=auto;fillColor=#33FF99;" parent="rE2jyP0h0pLRF4RiZY1M-196" vertex="1">
          <mxGeometry x="240" y="80" width="40" height="40" as="geometry" />
        </mxCell>
        <mxCell id="rE2jyP0h0pLRF4RiZY1M-70" value="" style="rounded=0;fillStyle=auto;fillColor=#CCFFE6;" parent="rE2jyP0h0pLRF4RiZY1M-196" vertex="1">
          <mxGeometry x="360" y="120" width="40" height="40" as="geometry" />
        </mxCell>
        <mxCell id="rE2jyP0h0pLRF4RiZY1M-71" value="" style="rounded=0;fillStyle=auto;fillColor=#CCFFE6;" parent="rE2jyP0h0pLRF4RiZY1M-196" vertex="1">
          <mxGeometry x="400" y="120" width="40" height="40" as="geometry" />
        </mxCell>
        <mxCell id="rE2jyP0h0pLRF4RiZY1M-72" value="" style="rounded=0;fillStyle=auto;fillColor=#CCFFE6;" parent="rE2jyP0h0pLRF4RiZY1M-196" vertex="1">
          <mxGeometry x="440" y="120" width="40" height="40" as="geometry" />
        </mxCell>
        <mxCell id="rE2jyP0h0pLRF4RiZY1M-74" value="" style="rounded=0;fillStyle=auto;fillColor=#CCFFE6;" parent="rE2jyP0h0pLRF4RiZY1M-196" vertex="1">
          <mxGeometry x="400" y="160" width="40" height="40" as="geometry" />
        </mxCell>
        <mxCell id="rE2jyP0h0pLRF4RiZY1M-75" value="" style="rounded=0;fillStyle=auto;fillColor=#CCFFE6;" parent="rE2jyP0h0pLRF4RiZY1M-196" vertex="1">
          <mxGeometry x="440" y="160" width="40" height="40" as="geometry" />
        </mxCell>
        <mxCell id="rE2jyP0h0pLRF4RiZY1M-77" value="" style="rounded=0;fillStyle=auto;fillColor=#CCFFE6;" parent="rE2jyP0h0pLRF4RiZY1M-196" vertex="1">
          <mxGeometry x="400" y="200" width="40" height="40" as="geometry" />
        </mxCell>
        <mxCell id="rE2jyP0h0pLRF4RiZY1M-78" value="" style="rounded=0;fillStyle=auto;fillColor=#CCFFE6;" parent="rE2jyP0h0pLRF4RiZY1M-196" vertex="1">
          <mxGeometry x="440" y="200" width="40" height="40" as="geometry" />
        </mxCell>
        <mxCell id="rE2jyP0h0pLRF4RiZY1M-79" value="" style="rounded=0;" parent="rE2jyP0h0pLRF4RiZY1M-196" vertex="1">
          <mxGeometry y="240" width="40" height="40" as="geometry" />
        </mxCell>
        <mxCell id="rE2jyP0h0pLRF4RiZY1M-80" value="" style="rounded=0;" parent="rE2jyP0h0pLRF4RiZY1M-196" vertex="1">
          <mxGeometry x="40" y="240" width="40" height="40" as="geometry" />
        </mxCell>
        <mxCell id="rE2jyP0h0pLRF4RiZY1M-81" value="" style="rounded=0;" parent="rE2jyP0h0pLRF4RiZY1M-196" vertex="1">
          <mxGeometry x="80" y="240" width="40" height="40" as="geometry" />
        </mxCell>
        <mxCell id="rE2jyP0h0pLRF4RiZY1M-82" value="" style="rounded=0;" parent="rE2jyP0h0pLRF4RiZY1M-196" vertex="1">
          <mxGeometry y="280" width="40" height="40" as="geometry" />
        </mxCell>
        <mxCell id="rE2jyP0h0pLRF4RiZY1M-83" value="" style="rounded=0;" parent="rE2jyP0h0pLRF4RiZY1M-196" vertex="1">
          <mxGeometry x="40" y="280" width="40" height="40" as="geometry" />
        </mxCell>
        <mxCell id="rE2jyP0h0pLRF4RiZY1M-84" value="" style="rounded=0;" parent="rE2jyP0h0pLRF4RiZY1M-196" vertex="1">
          <mxGeometry x="80" y="280" width="40" height="40" as="geometry" />
        </mxCell>
        <mxCell id="rE2jyP0h0pLRF4RiZY1M-85" value="" style="rounded=0;" parent="rE2jyP0h0pLRF4RiZY1M-196" vertex="1">
          <mxGeometry y="320" width="40" height="40" as="geometry" />
        </mxCell>
        <mxCell id="rE2jyP0h0pLRF4RiZY1M-86" value="" style="rounded=0;" parent="rE2jyP0h0pLRF4RiZY1M-196" vertex="1">
          <mxGeometry x="40" y="320" width="40" height="40" as="geometry" />
        </mxCell>
        <mxCell id="rE2jyP0h0pLRF4RiZY1M-87" value="" style="rounded=0;" parent="rE2jyP0h0pLRF4RiZY1M-196" vertex="1">
          <mxGeometry x="80" y="320" width="40" height="40" as="geometry" />
        </mxCell>
        <mxCell id="rE2jyP0h0pLRF4RiZY1M-88" value="" style="rounded=0;" parent="rE2jyP0h0pLRF4RiZY1M-196" vertex="1">
          <mxGeometry x="120" y="240" width="40" height="40" as="geometry" />
        </mxCell>
        <mxCell id="rE2jyP0h0pLRF4RiZY1M-89" value="" style="rounded=0;" parent="rE2jyP0h0pLRF4RiZY1M-196" vertex="1">
          <mxGeometry x="160" y="240" width="40" height="40" as="geometry" />
        </mxCell>
        <mxCell id="rE2jyP0h0pLRF4RiZY1M-90" value="" style="rounded=0;" parent="rE2jyP0h0pLRF4RiZY1M-196" vertex="1">
          <mxGeometry x="200" y="240" width="40" height="40" as="geometry" />
        </mxCell>
        <mxCell id="rE2jyP0h0pLRF4RiZY1M-91" value="" style="rounded=0;" parent="rE2jyP0h0pLRF4RiZY1M-196" vertex="1">
          <mxGeometry x="120" y="280" width="40" height="40" as="geometry" />
        </mxCell>
        <mxCell id="rE2jyP0h0pLRF4RiZY1M-92" value="" style="rounded=0;" parent="rE2jyP0h0pLRF4RiZY1M-196" vertex="1">
          <mxGeometry x="160" y="280" width="40" height="40" as="geometry" />
        </mxCell>
        <mxCell id="rE2jyP0h0pLRF4RiZY1M-93" value="" style="rounded=0;" parent="rE2jyP0h0pLRF4RiZY1M-196" vertex="1">
          <mxGeometry x="200" y="280" width="40" height="40" as="geometry" />
        </mxCell>
        <mxCell id="rE2jyP0h0pLRF4RiZY1M-94" value="" style="rounded=0;" parent="rE2jyP0h0pLRF4RiZY1M-196" vertex="1">
          <mxGeometry x="120" y="320" width="40" height="40" as="geometry" />
        </mxCell>
        <mxCell id="rE2jyP0h0pLRF4RiZY1M-95" value="" style="rounded=0;" parent="rE2jyP0h0pLRF4RiZY1M-196" vertex="1">
          <mxGeometry x="160" y="320" width="40" height="40" as="geometry" />
        </mxCell>
        <mxCell id="rE2jyP0h0pLRF4RiZY1M-96" value="" style="rounded=0;" parent="rE2jyP0h0pLRF4RiZY1M-196" vertex="1">
          <mxGeometry x="200" y="320" width="40" height="40" as="geometry" />
        </mxCell>
        <mxCell id="rE2jyP0h0pLRF4RiZY1M-97" value="" style="rounded=0;" parent="rE2jyP0h0pLRF4RiZY1M-196" vertex="1">
          <mxGeometry y="360" width="40" height="40" as="geometry" />
        </mxCell>
        <mxCell id="rE2jyP0h0pLRF4RiZY1M-98" value="" style="rounded=0;" parent="rE2jyP0h0pLRF4RiZY1M-196" vertex="1">
          <mxGeometry x="40" y="360" width="40" height="40" as="geometry" />
        </mxCell>
        <mxCell id="rE2jyP0h0pLRF4RiZY1M-99" value="" style="rounded=0;" parent="rE2jyP0h0pLRF4RiZY1M-196" vertex="1">
          <mxGeometry x="80" y="360" width="40" height="40" as="geometry" />
        </mxCell>
        <mxCell id="rE2jyP0h0pLRF4RiZY1M-100" value="" style="rounded=0;" parent="rE2jyP0h0pLRF4RiZY1M-196" vertex="1">
          <mxGeometry y="400" width="40" height="40" as="geometry" />
        </mxCell>
        <mxCell id="rE2jyP0h0pLRF4RiZY1M-101" value="" style="rounded=0;" parent="rE2jyP0h0pLRF4RiZY1M-196" vertex="1">
          <mxGeometry x="40" y="400" width="40" height="40" as="geometry" />
        </mxCell>
        <mxCell id="rE2jyP0h0pLRF4RiZY1M-102" value="" style="rounded=0;" parent="rE2jyP0h0pLRF4RiZY1M-196" vertex="1">
          <mxGeometry x="80" y="400" width="40" height="40" as="geometry" />
        </mxCell>
        <mxCell id="rE2jyP0h0pLRF4RiZY1M-103" value="" style="rounded=0;" parent="rE2jyP0h0pLRF4RiZY1M-196" vertex="1">
          <mxGeometry y="440" width="40" height="40" as="geometry" />
        </mxCell>
        <mxCell id="rE2jyP0h0pLRF4RiZY1M-104" value="" style="rounded=0;" parent="rE2jyP0h0pLRF4RiZY1M-196" vertex="1">
          <mxGeometry x="40" y="440" width="40" height="40" as="geometry" />
        </mxCell>
        <mxCell id="rE2jyP0h0pLRF4RiZY1M-105" value="" style="rounded=0;" parent="rE2jyP0h0pLRF4RiZY1M-196" vertex="1">
          <mxGeometry x="80" y="440" width="40" height="40" as="geometry" />
        </mxCell>
        <mxCell id="rE2jyP0h0pLRF4RiZY1M-106" value="" style="rounded=0;" parent="rE2jyP0h0pLRF4RiZY1M-196" vertex="1">
          <mxGeometry x="120" y="360" width="40" height="40" as="geometry" />
        </mxCell>
        <mxCell id="rE2jyP0h0pLRF4RiZY1M-107" value="" style="rounded=0;" parent="rE2jyP0h0pLRF4RiZY1M-196" vertex="1">
          <mxGeometry x="160" y="360" width="40" height="40" as="geometry" />
        </mxCell>
        <mxCell id="rE2jyP0h0pLRF4RiZY1M-108" value="" style="rounded=0;" parent="rE2jyP0h0pLRF4RiZY1M-196" vertex="1">
          <mxGeometry x="200" y="360" width="40" height="40" as="geometry" />
        </mxCell>
        <mxCell id="rE2jyP0h0pLRF4RiZY1M-109" value="" style="rounded=0;" parent="rE2jyP0h0pLRF4RiZY1M-196" vertex="1">
          <mxGeometry x="120" y="400" width="40" height="40" as="geometry" />
        </mxCell>
        <mxCell id="rE2jyP0h0pLRF4RiZY1M-110" value="" style="rounded=0;" parent="rE2jyP0h0pLRF4RiZY1M-196" vertex="1">
          <mxGeometry x="160" y="400" width="40" height="40" as="geometry" />
        </mxCell>
        <mxCell id="rE2jyP0h0pLRF4RiZY1M-111" value="" style="rounded=0;" parent="rE2jyP0h0pLRF4RiZY1M-196" vertex="1">
          <mxGeometry x="200" y="400" width="40" height="40" as="geometry" />
        </mxCell>
        <mxCell id="rE2jyP0h0pLRF4RiZY1M-112" value="" style="rounded=0;" parent="rE2jyP0h0pLRF4RiZY1M-196" vertex="1">
          <mxGeometry x="120" y="440" width="40" height="40" as="geometry" />
        </mxCell>
        <mxCell id="rE2jyP0h0pLRF4RiZY1M-113" value="" style="rounded=0;" parent="rE2jyP0h0pLRF4RiZY1M-196" vertex="1">
          <mxGeometry x="160" y="440" width="40" height="40" as="geometry" />
        </mxCell>
        <mxCell id="rE2jyP0h0pLRF4RiZY1M-114" value="" style="rounded=0;" parent="rE2jyP0h0pLRF4RiZY1M-196" vertex="1">
          <mxGeometry x="200" y="440" width="40" height="40" as="geometry" />
        </mxCell>
        <mxCell id="rE2jyP0h0pLRF4RiZY1M-115" value="" style="rounded=0;fillColor=#FFB366;" parent="rE2jyP0h0pLRF4RiZY1M-196" vertex="1">
          <mxGeometry x="240" y="240" width="40" height="40" as="geometry" />
        </mxCell>
        <mxCell id="rE2jyP0h0pLRF4RiZY1M-117" value="" style="rounded=0;fillColor=#FFE6CC;" parent="rE2jyP0h0pLRF4RiZY1M-196" vertex="1">
          <mxGeometry x="320" y="240" width="40" height="40" as="geometry" />
        </mxCell>
        <mxCell id="rE2jyP0h0pLRF4RiZY1M-120" value="" style="rounded=0;fillColor=#FFE6CC;" parent="rE2jyP0h0pLRF4RiZY1M-196" vertex="1">
          <mxGeometry x="320" y="280" width="40" height="40" as="geometry" />
        </mxCell>
        <mxCell id="rE2jyP0h0pLRF4RiZY1M-124" value="" style="rounded=0;fillColor=#FFE6CC;" parent="rE2jyP0h0pLRF4RiZY1M-196" vertex="1">
          <mxGeometry x="360" y="240" width="40" height="40" as="geometry" />
        </mxCell>
        <mxCell id="rE2jyP0h0pLRF4RiZY1M-125" value="" style="rounded=0;fillColor=#FFE6CC;" parent="rE2jyP0h0pLRF4RiZY1M-196" vertex="1">
          <mxGeometry x="400" y="240" width="40" height="40" as="geometry" />
        </mxCell>
        <mxCell id="rE2jyP0h0pLRF4RiZY1M-126" value="" style="rounded=0;fillColor=#FFE6CC;" parent="rE2jyP0h0pLRF4RiZY1M-196" vertex="1">
          <mxGeometry x="440" y="240" width="40" height="40" as="geometry" />
        </mxCell>
        <mxCell id="rE2jyP0h0pLRF4RiZY1M-127" value="" style="rounded=0;fillColor=#FFE6CC;" parent="rE2jyP0h0pLRF4RiZY1M-196" vertex="1">
          <mxGeometry x="360" y="280" width="40" height="40" as="geometry" />
        </mxCell>
        <mxCell id="rE2jyP0h0pLRF4RiZY1M-128" value="" style="rounded=0;fillColor=#FFE6CC;" parent="rE2jyP0h0pLRF4RiZY1M-196" vertex="1">
          <mxGeometry x="400" y="280" width="40" height="40" as="geometry" />
        </mxCell>
        <mxCell id="rE2jyP0h0pLRF4RiZY1M-129" value="" style="rounded=0;fillColor=#FFE6CC;" parent="rE2jyP0h0pLRF4RiZY1M-196" vertex="1">
          <mxGeometry x="440" y="280" width="40" height="40" as="geometry" />
        </mxCell>
        <mxCell id="rE2jyP0h0pLRF4RiZY1M-131" value="" style="rounded=0;fillColor=#FFE6CC;" parent="rE2jyP0h0pLRF4RiZY1M-196" vertex="1">
          <mxGeometry x="400" y="320" width="40" height="40" as="geometry" />
        </mxCell>
        <mxCell id="rE2jyP0h0pLRF4RiZY1M-132" value="" style="rounded=0;fillColor=#FFE6CC;" parent="rE2jyP0h0pLRF4RiZY1M-196" vertex="1">
          <mxGeometry x="440" y="320" width="40" height="40" as="geometry" />
        </mxCell>
        <mxCell id="rE2jyP0h0pLRF4RiZY1M-143" value="" style="rounded=0;fillColor=#FFE6CC;" parent="rE2jyP0h0pLRF4RiZY1M-196" vertex="1">
          <mxGeometry x="400" y="360" width="40" height="40" as="geometry" />
        </mxCell>
        <mxCell id="rE2jyP0h0pLRF4RiZY1M-144" value="" style="rounded=0;fillColor=#FFE6CC;" parent="rE2jyP0h0pLRF4RiZY1M-196" vertex="1">
          <mxGeometry x="440" y="360" width="40" height="40" as="geometry" />
        </mxCell>
        <mxCell id="rE2jyP0h0pLRF4RiZY1M-151" value="" style="rounded=0;gradientColor=none;fillStyle=auto;fillColor=#66B2FF;" parent="rE2jyP0h0pLRF4RiZY1M-196" vertex="1">
          <mxGeometry x="80" y="80" width="40" height="40" as="geometry" />
        </mxCell>
        <mxCell id="rE2jyP0h0pLRF4RiZY1M-152" value="" style="rounded=0;gradientColor=none;fillStyle=auto;fillColor=#66B2FF;" parent="rE2jyP0h0pLRF4RiZY1M-196" vertex="1">
          <mxGeometry x="120" y="80" width="40" height="40" as="geometry" />
        </mxCell>
        <mxCell id="rE2jyP0h0pLRF4RiZY1M-153" value="" style="rounded=0;gradientColor=none;fillStyle=auto;fillColor=#66B2FF;" parent="rE2jyP0h0pLRF4RiZY1M-196" vertex="1">
          <mxGeometry x="80" y="120" width="40" height="40" as="geometry" />
        </mxCell>
        <mxCell id="rE2jyP0h0pLRF4RiZY1M-154" value="" style="rounded=0;gradientColor=none;fillStyle=auto;fillColor=#66B2FF;" parent="rE2jyP0h0pLRF4RiZY1M-196" vertex="1">
          <mxGeometry x="120" y="120" width="40" height="40" as="geometry" />
        </mxCell>
        <mxCell id="rE2jyP0h0pLRF4RiZY1M-155" value="" style="rounded=0;gradientColor=none;fillStyle=auto;fillColor=#66B2FF;" parent="rE2jyP0h0pLRF4RiZY1M-196" vertex="1">
          <mxGeometry x="160" y="160" width="40" height="40" as="geometry" />
        </mxCell>
        <mxCell id="rE2jyP0h0pLRF4RiZY1M-156" value="" style="rounded=0;gradientColor=none;fillStyle=auto;fillColor=#66B2FF;" parent="rE2jyP0h0pLRF4RiZY1M-196" vertex="1">
          <mxGeometry x="200" y="160" width="40" height="40" as="geometry" />
        </mxCell>
        <mxCell id="rE2jyP0h0pLRF4RiZY1M-157" value="" style="rounded=0;gradientColor=none;fillStyle=auto;fillColor=#66B2FF;" parent="rE2jyP0h0pLRF4RiZY1M-196" vertex="1">
          <mxGeometry x="160" y="200" width="40" height="40" as="geometry" />
        </mxCell>
        <mxCell id="rE2jyP0h0pLRF4RiZY1M-158" value="" style="rounded=0;gradientColor=none;fillStyle=auto;fillColor=#66B2FF;" parent="rE2jyP0h0pLRF4RiZY1M-196" vertex="1">
          <mxGeometry x="200" y="200" width="40" height="40" as="geometry" />
        </mxCell>
        <mxCell id="rE2jyP0h0pLRF4RiZY1M-159" value="" style="rounded=0;fillStyle=auto;fillColor=#33FF99;" parent="rE2jyP0h0pLRF4RiZY1M-196" vertex="1">
          <mxGeometry x="280" y="80" width="40" height="40" as="geometry" />
        </mxCell>
        <mxCell id="rE2jyP0h0pLRF4RiZY1M-160" value="" style="rounded=0;fillStyle=auto;fillColor=#33FF99;" parent="rE2jyP0h0pLRF4RiZY1M-196" vertex="1">
          <mxGeometry x="240" y="120" width="40" height="40" as="geometry" />
        </mxCell>
        <mxCell id="rE2jyP0h0pLRF4RiZY1M-161" value="" style="rounded=0;fillStyle=auto;fillColor=#33FF99;" parent="rE2jyP0h0pLRF4RiZY1M-196" vertex="1">
          <mxGeometry x="280" y="120" width="40" height="40" as="geometry" />
        </mxCell>
        <mxCell id="rE2jyP0h0pLRF4RiZY1M-162" value="" style="rounded=0;fillStyle=auto;fillColor=#33FF99;" parent="rE2jyP0h0pLRF4RiZY1M-196" vertex="1">
          <mxGeometry x="240" y="160" width="40" height="40" as="geometry" />
        </mxCell>
        <mxCell id="rE2jyP0h0pLRF4RiZY1M-163" value="" style="rounded=0;fillStyle=auto;fillColor=#33FF99;" parent="rE2jyP0h0pLRF4RiZY1M-196" vertex="1">
          <mxGeometry x="280" y="160" width="40" height="40" as="geometry" />
        </mxCell>
        <mxCell id="rE2jyP0h0pLRF4RiZY1M-164" value="" style="rounded=0;fillStyle=auto;fillColor=#33FF99;" parent="rE2jyP0h0pLRF4RiZY1M-196" vertex="1">
          <mxGeometry x="240" y="200" width="40" height="40" as="geometry" />
        </mxCell>
        <mxCell id="rE2jyP0h0pLRF4RiZY1M-165" value="" style="rounded=0;fillStyle=auto;fillColor=#33FF99;" parent="rE2jyP0h0pLRF4RiZY1M-196" vertex="1">
          <mxGeometry x="280" y="200" width="40" height="40" as="geometry" />
        </mxCell>
        <mxCell id="rE2jyP0h0pLRF4RiZY1M-166" value="" style="rounded=0;fillStyle=auto;fillColor=#33FF99;" parent="rE2jyP0h0pLRF4RiZY1M-196" vertex="1">
          <mxGeometry x="320" y="160" width="40" height="40" as="geometry" />
        </mxCell>
        <mxCell id="rE2jyP0h0pLRF4RiZY1M-167" value="" style="rounded=0;fillStyle=auto;fillColor=#33FF99;" parent="rE2jyP0h0pLRF4RiZY1M-196" vertex="1">
          <mxGeometry x="360" y="160" width="40" height="40" as="geometry" />
        </mxCell>
        <mxCell id="rE2jyP0h0pLRF4RiZY1M-168" value="" style="rounded=0;fillStyle=auto;fillColor=#33FF99;" parent="rE2jyP0h0pLRF4RiZY1M-196" vertex="1">
          <mxGeometry x="320" y="200" width="40" height="40" as="geometry" />
        </mxCell>
        <mxCell id="rE2jyP0h0pLRF4RiZY1M-169" value="" style="rounded=0;fillStyle=auto;fillColor=#33FF99;" parent="rE2jyP0h0pLRF4RiZY1M-196" vertex="1">
          <mxGeometry x="360" y="200" width="40" height="40" as="geometry" />
        </mxCell>
        <mxCell id="rE2jyP0h0pLRF4RiZY1M-170" value="" style="rounded=0;fillColor=#FFB366;" parent="rE2jyP0h0pLRF4RiZY1M-196" vertex="1">
          <mxGeometry x="280" y="240" width="40" height="40" as="geometry" />
        </mxCell>
        <mxCell id="rE2jyP0h0pLRF4RiZY1M-171" value="" style="rounded=0;fillColor=#FFB366;" parent="rE2jyP0h0pLRF4RiZY1M-196" vertex="1">
          <mxGeometry x="240" y="280" width="40" height="40" as="geometry" />
        </mxCell>
        <mxCell id="rE2jyP0h0pLRF4RiZY1M-172" value="" style="rounded=0;fillColor=#FFB366;" parent="rE2jyP0h0pLRF4RiZY1M-196" vertex="1">
          <mxGeometry x="280" y="280" width="40" height="40" as="geometry" />
        </mxCell>
        <mxCell id="rE2jyP0h0pLRF4RiZY1M-173" value="" style="rounded=0;fillColor=#FFB366;" parent="rE2jyP0h0pLRF4RiZY1M-196" vertex="1">
          <mxGeometry x="240" y="320" width="40" height="40" as="geometry" />
        </mxCell>
        <mxCell id="rE2jyP0h0pLRF4RiZY1M-174" value="" style="rounded=0;fillColor=#FFB366;" parent="rE2jyP0h0pLRF4RiZY1M-196" vertex="1">
          <mxGeometry x="280" y="320" width="40" height="40" as="geometry" />
        </mxCell>
        <mxCell id="rE2jyP0h0pLRF4RiZY1M-175" value="" style="rounded=0;fillColor=#FFB366;" parent="rE2jyP0h0pLRF4RiZY1M-196" vertex="1">
          <mxGeometry x="240" y="360" width="40" height="40" as="geometry" />
        </mxCell>
        <mxCell id="rE2jyP0h0pLRF4RiZY1M-176" value="" style="rounded=0;fillColor=#FFB366;" parent="rE2jyP0h0pLRF4RiZY1M-196" vertex="1">
          <mxGeometry x="280" y="360" width="40" height="40" as="geometry" />
        </mxCell>
        <mxCell id="rE2jyP0h0pLRF4RiZY1M-177" value="" style="rounded=0;fillColor=#FFB366;" parent="rE2jyP0h0pLRF4RiZY1M-196" vertex="1">
          <mxGeometry x="320" y="320" width="40" height="40" as="geometry" />
        </mxCell>
        <mxCell id="rE2jyP0h0pLRF4RiZY1M-178" value="" style="rounded=0;fillColor=#FFB366;" parent="rE2jyP0h0pLRF4RiZY1M-196" vertex="1">
          <mxGeometry x="360" y="320" width="40" height="40" as="geometry" />
        </mxCell>
        <mxCell id="rE2jyP0h0pLRF4RiZY1M-179" value="" style="rounded=0;fillColor=#FFB366;" parent="rE2jyP0h0pLRF4RiZY1M-196" vertex="1">
          <mxGeometry x="320" y="360" width="40" height="40" as="geometry" />
        </mxCell>
        <mxCell id="rE2jyP0h0pLRF4RiZY1M-180" value="" style="rounded=0;fillColor=#FFB366;" parent="rE2jyP0h0pLRF4RiZY1M-196" vertex="1">
          <mxGeometry x="360" y="360" width="40" height="40" as="geometry" />
        </mxCell>
        <mxCell id="rE2jyP0h0pLRF4RiZY1M-181" value="" style="rounded=0;fillColor=#FFB366;" parent="rE2jyP0h0pLRF4RiZY1M-196" vertex="1">
          <mxGeometry x="240" y="400" width="40" height="40" as="geometry" />
        </mxCell>
        <mxCell id="rE2jyP0h0pLRF4RiZY1M-182" value="" style="rounded=0;fillColor=#FFB366;" parent="rE2jyP0h0pLRF4RiZY1M-196" vertex="1">
          <mxGeometry x="280" y="400" width="40" height="40" as="geometry" />
        </mxCell>
        <mxCell id="rE2jyP0h0pLRF4RiZY1M-183" value="" style="rounded=0;fillColor=#FFB366;" parent="rE2jyP0h0pLRF4RiZY1M-196" vertex="1">
          <mxGeometry x="240" y="440" width="40" height="40" as="geometry" />
        </mxCell>
        <mxCell id="rE2jyP0h0pLRF4RiZY1M-184" value="" style="rounded=0;fillColor=#FFB366;" parent="rE2jyP0h0pLRF4RiZY1M-196" vertex="1">
          <mxGeometry x="280" y="440" width="40" height="40" as="geometry" />
        </mxCell>
        <mxCell id="rE2jyP0h0pLRF4RiZY1M-185" value="" style="rounded=0;fillColor=#FFB366;" parent="rE2jyP0h0pLRF4RiZY1M-196" vertex="1">
          <mxGeometry x="320" y="400" width="40" height="40" as="geometry" />
        </mxCell>
        <mxCell id="rE2jyP0h0pLRF4RiZY1M-186" value="" style="rounded=0;fillColor=#FFB366;" parent="rE2jyP0h0pLRF4RiZY1M-196" vertex="1">
          <mxGeometry x="360" y="400" width="40" height="40" as="geometry" />
        </mxCell>
        <mxCell id="rE2jyP0h0pLRF4RiZY1M-187" value="" style="rounded=0;fillColor=#FFB366;" parent="rE2jyP0h0pLRF4RiZY1M-196" vertex="1">
          <mxGeometry x="320" y="440" width="40" height="40" as="geometry" />
        </mxCell>
        <mxCell id="rE2jyP0h0pLRF4RiZY1M-188" value="" style="rounded=0;fillColor=#FFB366;" parent="rE2jyP0h0pLRF4RiZY1M-196" vertex="1">
          <mxGeometry x="360" y="440" width="40" height="40" as="geometry" />
        </mxCell>
        <mxCell id="rE2jyP0h0pLRF4RiZY1M-189" value="" style="rounded=0;fillColor=#FFB366;" parent="rE2jyP0h0pLRF4RiZY1M-196" vertex="1">
          <mxGeometry x="400" y="400" width="40" height="40" as="geometry" />
        </mxCell>
        <mxCell id="rE2jyP0h0pLRF4RiZY1M-190" value="" style="rounded=0;fillColor=#FFB366;" parent="rE2jyP0h0pLRF4RiZY1M-196" vertex="1">
          <mxGeometry x="440" y="400" width="40" height="40" as="geometry" />
        </mxCell>
        <mxCell id="rE2jyP0h0pLRF4RiZY1M-191" value="" style="rounded=0;fillColor=#FFB366;" parent="rE2jyP0h0pLRF4RiZY1M-196" vertex="1">
          <mxGeometry x="400" y="440" width="40" height="40" as="geometry" />
        </mxCell>
        <mxCell id="rE2jyP0h0pLRF4RiZY1M-192" value="" style="rounded=0;fillColor=#FFB366;" parent="rE2jyP0h0pLRF4RiZY1M-196" vertex="1">
          <mxGeometry x="440" y="440" width="40" height="40" as="geometry" />
        </mxCell>
        <mxCell id="rE2jyP0h0pLRF4RiZY1M-197" value="" style="rounded=0;gradientColor=none;fillStyle=auto;fillColor=#CCE5FF;" parent="1" vertex="1">
          <mxGeometry x="600" y="120" width="40" height="40" as="geometry" />
        </mxCell>
        <mxCell id="rE2jyP0h0pLRF4RiZY1M-199" value="" style="rounded=0;fillStyle=auto;fillColor=#CCFFE6;" parent="1" vertex="1">
          <mxGeometry x="600" y="200" width="40" height="40" as="geometry" />
        </mxCell>
        <mxCell id="rE2jyP0h0pLRF4RiZY1M-200" value="" style="rounded=0;fillColor=#FFE6CC;" parent="1" vertex="1">
          <mxGeometry x="600" y="280" width="40" height="40" as="geometry" />
        </mxCell>
        <mxCell id="rE2jyP0h0pLRF4RiZY1M-201" value="$$x_t^2$$" style="text;html=1;align=center;verticalAlign=middle;fontSize=29;" parent="1" vertex="1">
          <mxGeometry y="160" width="80" height="80" as="geometry" />
        </mxCell>
        <mxCell id="rE2jyP0h0pLRF4RiZY1M-202" value="$$x_t^3$$" style="text;html=1;align=center;verticalAlign=middle;fontSize=29;" parent="1" vertex="1">
          <mxGeometry y="240" width="80" height="80" as="geometry" />
        </mxCell>
        <mxCell id="rE2jyP0h0pLRF4RiZY1M-203" value="&lt;div&gt;$$x_0^1$$&lt;/div&gt;" style="text;html=1;align=center;verticalAlign=middle;fontSize=29;" parent="1" vertex="1">
          <mxGeometry y="320" width="80" height="80" as="geometry" />
        </mxCell>
        <mxCell id="rE2jyP0h0pLRF4RiZY1M-204" value="$$x_0^2$$" style="text;html=1;align=center;verticalAlign=middle;fontSize=29;" parent="1" vertex="1">
          <mxGeometry y="400" width="80" height="80" as="geometry" />
        </mxCell>
        <mxCell id="rE2jyP0h0pLRF4RiZY1M-205" value="$$x_0^3$$" style="text;html=1;align=center;verticalAlign=middle;fontSize=29;" parent="1" vertex="1">
          <mxGeometry y="480" width="80" height="80" as="geometry" />
        </mxCell>
        <mxCell id="rE2jyP0h0pLRF4RiZY1M-206" value="$$x_t^1$$" style="text;html=1;align=center;verticalAlign=middle;fontSize=29;" parent="1" vertex="1">
          <mxGeometry x="80" y="560" width="80" height="80" as="geometry" />
        </mxCell>
        <mxCell id="rE2jyP0h0pLRF4RiZY1M-207" value="$$x_t^2$$" style="text;html=1;align=center;verticalAlign=middle;fontSize=29;" parent="1" vertex="1">
          <mxGeometry x="160" y="560" width="80" height="80" as="geometry" />
        </mxCell>
        <mxCell id="rE2jyP0h0pLRF4RiZY1M-208" value="$$x_t^3$$" style="text;html=1;align=center;verticalAlign=middle;fontSize=29;" parent="1" vertex="1">
          <mxGeometry x="240" y="560" width="80" height="80" as="geometry" />
        </mxCell>
        <mxCell id="rE2jyP0h0pLRF4RiZY1M-209" value="&lt;div&gt;$$x_0^1$$&lt;/div&gt;" style="text;html=1;align=center;verticalAlign=middle;fontSize=29;" parent="1" vertex="1">
          <mxGeometry x="320" y="560" width="80" height="80" as="geometry" />
        </mxCell>
        <mxCell id="rE2jyP0h0pLRF4RiZY1M-210" value="$$x_0^2$$" style="text;html=1;align=center;verticalAlign=middle;fontSize=29;" parent="1" vertex="1">
          <mxGeometry x="400" y="560" width="80" height="80" as="geometry" />
        </mxCell>
        <mxCell id="rE2jyP0h0pLRF4RiZY1M-211" value="$$x_0^3$$" style="text;html=1;align=center;verticalAlign=middle;fontSize=29;" parent="1" vertex="1">
          <mxGeometry x="480" y="560" width="80" height="80" as="geometry" />
        </mxCell>
        <mxCell id="rE2jyP0h0pLRF4RiZY1M-212" value="&lt;font face=&quot;Times New Roman&quot;&gt;Block Diagonal&lt;/font&gt;" style="text;html=1;align=left;verticalAlign=middle;fontSize=29;" parent="1" vertex="1">
          <mxGeometry x="660" y="120" width="180" height="40" as="geometry" />
        </mxCell>
        <mxCell id="rE2jyP0h0pLRF4RiZY1M-213" value="&lt;font face=&quot;Times New Roman&quot;&gt;Offset Block Causal&lt;/font&gt;" style="text;html=1;align=left;verticalAlign=middle;fontSize=29;" parent="1" vertex="1">
          <mxGeometry x="660" y="200" width="180" height="40" as="geometry" />
        </mxCell>
        <mxCell id="rE2jyP0h0pLRF4RiZY1M-214" value="&lt;font face=&quot;Times New Roman&quot;&gt;Block Causal&lt;/font&gt;" style="text;html=1;align=left;verticalAlign=middle;fontSize=29;" parent="1" vertex="1">
          <mxGeometry x="660" y="280" width="180" height="40" as="geometry" />
        </mxCell>
      </root>
    </mxGraphModel>
  </diagram>
  <diagram id="SFPL0ogDIlJZyXQt88G4" name="Page-2">
    <mxGraphModel dx="1629" dy="1120" grid="1" gridSize="10" guides="1" tooltips="1" connect="1" arrows="1" fold="1" page="1" pageScale="1" pageWidth="850" pageHeight="1100" math="1" shadow="0">
      <root>
        <mxCell id="0" />
        <mxCell id="1" parent="0" />
        <mxCell id="VwSuklPjljDMKvAq9zAE-37" value="&lt;div&gt;$$x_0^1$$&lt;/div&gt;" style="text;html=1;align=center;verticalAlign=middle;fontSize=29;" vertex="1" parent="1">
          <mxGeometry x="120" y="600" width="80" height="80" as="geometry" />
        </mxCell>
        <mxCell id="VwSuklPjljDMKvAq9zAE-38" value="$$x_0^2$$" style="text;html=1;align=center;verticalAlign=middle;fontSize=29;" vertex="1" parent="1">
          <mxGeometry x="280" y="600" width="80" height="80" as="geometry" />
        </mxCell>
        <mxCell id="VwSuklPjljDMKvAq9zAE-39" value="$$x_t^3$$" style="text;html=1;align=center;verticalAlign=middle;fontSize=29;" vertex="1" parent="1">
          <mxGeometry x="440" y="600" width="80" height="80" as="geometry" />
        </mxCell>
        <mxCell id="tHIaPe8n0WpGzTgxxik5-1" value="&lt;div&gt;$$x_0^1$$&lt;/div&gt;" style="text;html=1;align=center;verticalAlign=middle;fontSize=29;" vertex="1" parent="1">
          <mxGeometry y="150" width="80" height="80" as="geometry" />
        </mxCell>
        <mxCell id="tHIaPe8n0WpGzTgxxik5-2" value="$$x_0^2$$" style="text;html=1;align=center;verticalAlign=middle;fontSize=29;" vertex="1" parent="1">
          <mxGeometry y="320" width="80" height="80" as="geometry" />
        </mxCell>
        <mxCell id="tHIaPe8n0WpGzTgxxik5-3" value="$$x_t^3$$" style="text;html=1;align=center;verticalAlign=middle;fontSize=29;" vertex="1" parent="1">
          <mxGeometry y="480" width="80" height="80" as="geometry" />
        </mxCell>
        <mxCell id="tHIaPe8n0WpGzTgxxik5-4" value="" style="rounded=0;fillColor=#FFCCFF;" vertex="1" parent="1">
          <mxGeometry x="620" y="130" width="70" height="70" as="geometry" />
        </mxCell>
        <mxCell id="tHIaPe8n0WpGzTgxxik5-5" value="" style="rounded=0;fillColor=#FFCC99;" vertex="1" parent="1">
          <mxGeometry x="620" y="250" width="70" height="70" as="geometry" />
        </mxCell>
        <mxCell id="tHIaPe8n0WpGzTgxxik5-6" value="" style="rounded=0;fillColor=#FFB366;" vertex="1" parent="1">
          <mxGeometry x="620" y="370" width="70" height="70" as="geometry" />
        </mxCell>
        <mxCell id="b8rIkGNmeGh8yhFmV10Z-1" value="" style="group" vertex="1" connectable="0" parent="1">
          <mxGeometry x="80" y="120" width="480" height="480" as="geometry" />
        </mxCell>
        <mxCell id="VwSuklPjljDMKvAq9zAE-1" value="" style="rounded=0;fillColor=#FFCCFF;" vertex="1" parent="b8rIkGNmeGh8yhFmV10Z-1">
          <mxGeometry width="80" height="80" as="geometry" />
        </mxCell>
        <mxCell id="VwSuklPjljDMKvAq9zAE-2" value="" style="rounded=0;fillColor=none;" vertex="1" parent="b8rIkGNmeGh8yhFmV10Z-1">
          <mxGeometry x="160" width="80" height="80" as="geometry" />
        </mxCell>
        <mxCell id="VwSuklPjljDMKvAq9zAE-3" value="" style="rounded=0;fillColor=none;" vertex="1" parent="b8rIkGNmeGh8yhFmV10Z-1">
          <mxGeometry x="160" y="80" width="80" height="80" as="geometry" />
        </mxCell>
        <mxCell id="VwSuklPjljDMKvAq9zAE-4" value="" style="rounded=0;fillColor=none;" vertex="1" parent="b8rIkGNmeGh8yhFmV10Z-1">
          <mxGeometry x="240" width="80" height="80" as="geometry" />
        </mxCell>
        <mxCell id="VwSuklPjljDMKvAq9zAE-5" value="" style="rounded=0;fillColor=none;" vertex="1" parent="b8rIkGNmeGh8yhFmV10Z-1">
          <mxGeometry x="320" width="80" height="80" as="geometry" />
        </mxCell>
        <mxCell id="VwSuklPjljDMKvAq9zAE-6" value="" style="rounded=0;fillColor=none;" vertex="1" parent="b8rIkGNmeGh8yhFmV10Z-1">
          <mxGeometry x="400" width="80" height="80" as="geometry" />
        </mxCell>
        <mxCell id="VwSuklPjljDMKvAq9zAE-7" value="" style="rounded=0;fillColor=none;" vertex="1" parent="b8rIkGNmeGh8yhFmV10Z-1">
          <mxGeometry x="240" y="80" width="80" height="80" as="geometry" />
        </mxCell>
        <mxCell id="VwSuklPjljDMKvAq9zAE-8" value="" style="rounded=0;fillColor=none;" vertex="1" parent="b8rIkGNmeGh8yhFmV10Z-1">
          <mxGeometry x="320" y="80" width="80" height="80" as="geometry" />
        </mxCell>
        <mxCell id="VwSuklPjljDMKvAq9zAE-9" value="" style="rounded=0;fillColor=none;" vertex="1" parent="b8rIkGNmeGh8yhFmV10Z-1">
          <mxGeometry x="400" y="80" width="80" height="80" as="geometry" />
        </mxCell>
        <mxCell id="VwSuklPjljDMKvAq9zAE-10" value="" style="rounded=0;fillColor=none;" vertex="1" parent="b8rIkGNmeGh8yhFmV10Z-1">
          <mxGeometry x="320" y="160" width="80" height="80" as="geometry" />
        </mxCell>
        <mxCell id="VwSuklPjljDMKvAq9zAE-11" value="" style="rounded=0;fillColor=none;" vertex="1" parent="b8rIkGNmeGh8yhFmV10Z-1">
          <mxGeometry x="400" y="160" width="80" height="80" as="geometry" />
        </mxCell>
        <mxCell id="VwSuklPjljDMKvAq9zAE-12" value="" style="rounded=0;fillColor=none;" vertex="1" parent="b8rIkGNmeGh8yhFmV10Z-1">
          <mxGeometry x="320" y="240" width="80" height="80" as="geometry" />
        </mxCell>
        <mxCell id="VwSuklPjljDMKvAq9zAE-13" value="" style="rounded=0;fillColor=none;" vertex="1" parent="b8rIkGNmeGh8yhFmV10Z-1">
          <mxGeometry x="400" y="240" width="80" height="80" as="geometry" />
        </mxCell>
        <mxCell id="VwSuklPjljDMKvAq9zAE-14" value="" style="rounded=0;fillColor=#FFCCFF;" vertex="1" parent="b8rIkGNmeGh8yhFmV10Z-1">
          <mxGeometry x="80" width="80" height="80" as="geometry" />
        </mxCell>
        <mxCell id="VwSuklPjljDMKvAq9zAE-15" value="" style="rounded=0;fillColor=#FFCCFF;" vertex="1" parent="b8rIkGNmeGh8yhFmV10Z-1">
          <mxGeometry y="80" width="80" height="80" as="geometry" />
        </mxCell>
        <mxCell id="VwSuklPjljDMKvAq9zAE-16" value="" style="rounded=0;fillColor=#FFCCFF;" vertex="1" parent="b8rIkGNmeGh8yhFmV10Z-1">
          <mxGeometry x="80" y="80" width="80" height="80" as="geometry" />
        </mxCell>
        <mxCell id="VwSuklPjljDMKvAq9zAE-17" value="" style="rounded=0;fillColor=#FFCCFF;" vertex="1" parent="b8rIkGNmeGh8yhFmV10Z-1">
          <mxGeometry y="160" width="80" height="80" as="geometry" />
        </mxCell>
        <mxCell id="VwSuklPjljDMKvAq9zAE-18" value="" style="rounded=0;fillColor=#FFCCFF;" vertex="1" parent="b8rIkGNmeGh8yhFmV10Z-1">
          <mxGeometry x="80" y="160" width="80" height="80" as="geometry" />
        </mxCell>
        <mxCell id="VwSuklPjljDMKvAq9zAE-19" value="" style="rounded=0;fillColor=#FFCCFF;" vertex="1" parent="b8rIkGNmeGh8yhFmV10Z-1">
          <mxGeometry y="240" width="80" height="80" as="geometry" />
        </mxCell>
        <mxCell id="VwSuklPjljDMKvAq9zAE-20" value="" style="rounded=0;fillColor=#FFCCFF;" vertex="1" parent="b8rIkGNmeGh8yhFmV10Z-1">
          <mxGeometry x="80" y="240" width="80" height="80" as="geometry" />
        </mxCell>
        <mxCell id="VwSuklPjljDMKvAq9zAE-21" value="" style="rounded=0;fillColor=#FFCCFF;" vertex="1" parent="b8rIkGNmeGh8yhFmV10Z-1">
          <mxGeometry x="160" y="160" width="80" height="80" as="geometry" />
        </mxCell>
        <mxCell id="VwSuklPjljDMKvAq9zAE-22" value="" style="rounded=0;fillColor=#FFCCFF;" vertex="1" parent="b8rIkGNmeGh8yhFmV10Z-1">
          <mxGeometry x="240" y="160" width="80" height="80" as="geometry" />
        </mxCell>
        <mxCell id="VwSuklPjljDMKvAq9zAE-23" value="" style="rounded=0;fillColor=#FFCCFF;" vertex="1" parent="b8rIkGNmeGh8yhFmV10Z-1">
          <mxGeometry x="160" y="240" width="80" height="80" as="geometry" />
        </mxCell>
        <mxCell id="VwSuklPjljDMKvAq9zAE-24" value="" style="rounded=0;fillColor=#FFCCFF;" vertex="1" parent="b8rIkGNmeGh8yhFmV10Z-1">
          <mxGeometry x="240" y="240" width="80" height="80" as="geometry" />
        </mxCell>
        <mxCell id="VwSuklPjljDMKvAq9zAE-25" value="" style="rounded=0;fillColor=#FFCC99;" vertex="1" parent="b8rIkGNmeGh8yhFmV10Z-1">
          <mxGeometry y="320" width="80" height="80" as="geometry" />
        </mxCell>
        <mxCell id="VwSuklPjljDMKvAq9zAE-26" value="" style="rounded=0;fillColor=#FFCC99;" vertex="1" parent="b8rIkGNmeGh8yhFmV10Z-1">
          <mxGeometry x="80" y="320" width="80" height="80" as="geometry" />
        </mxCell>
        <mxCell id="VwSuklPjljDMKvAq9zAE-27" value="" style="rounded=0;fillColor=#FFCC99;" vertex="1" parent="b8rIkGNmeGh8yhFmV10Z-1">
          <mxGeometry y="400" width="80" height="80" as="geometry" />
        </mxCell>
        <mxCell id="VwSuklPjljDMKvAq9zAE-28" value="" style="rounded=0;fillColor=#FFCC99;" vertex="1" parent="b8rIkGNmeGh8yhFmV10Z-1">
          <mxGeometry x="80" y="400" width="80" height="80" as="geometry" />
        </mxCell>
        <mxCell id="VwSuklPjljDMKvAq9zAE-29" value="" style="rounded=0;fillColor=#FFCC99;" vertex="1" parent="b8rIkGNmeGh8yhFmV10Z-1">
          <mxGeometry x="160" y="320" width="80" height="80" as="geometry" />
        </mxCell>
        <mxCell id="VwSuklPjljDMKvAq9zAE-30" value="" style="rounded=0;fillColor=#FFCC99;" vertex="1" parent="b8rIkGNmeGh8yhFmV10Z-1">
          <mxGeometry x="240" y="320" width="80" height="80" as="geometry" />
        </mxCell>
        <mxCell id="VwSuklPjljDMKvAq9zAE-31" value="" style="rounded=0;fillColor=#FFCC99;" vertex="1" parent="b8rIkGNmeGh8yhFmV10Z-1">
          <mxGeometry x="160" y="400" width="80" height="80" as="geometry" />
        </mxCell>
        <mxCell id="VwSuklPjljDMKvAq9zAE-32" value="" style="rounded=0;fillColor=#FFCC99;" vertex="1" parent="b8rIkGNmeGh8yhFmV10Z-1">
          <mxGeometry x="240" y="400" width="80" height="80" as="geometry" />
        </mxCell>
        <mxCell id="VwSuklPjljDMKvAq9zAE-33" value="" style="rounded=0;fillColor=#FFB366;" vertex="1" parent="b8rIkGNmeGh8yhFmV10Z-1">
          <mxGeometry x="320" y="320" width="80" height="80" as="geometry" />
        </mxCell>
        <mxCell id="VwSuklPjljDMKvAq9zAE-34" value="" style="rounded=0;fillColor=#FFB366;" vertex="1" parent="b8rIkGNmeGh8yhFmV10Z-1">
          <mxGeometry x="400" y="320" width="80" height="80" as="geometry" />
        </mxCell>
        <mxCell id="VwSuklPjljDMKvAq9zAE-35" value="" style="rounded=0;fillColor=#FFB366;" vertex="1" parent="b8rIkGNmeGh8yhFmV10Z-1">
          <mxGeometry x="320" y="400" width="80" height="80" as="geometry" />
        </mxCell>
        <mxCell id="VwSuklPjljDMKvAq9zAE-36" value="" style="rounded=0;fillColor=#FFB366;" vertex="1" parent="b8rIkGNmeGh8yhFmV10Z-1">
          <mxGeometry x="400" y="400" width="80" height="80" as="geometry" />
        </mxCell>
        <mxCell id="0aervZrcC1UVJmXJ-vZ2-1" value="&lt;font face=&quot;Times New Roman&quot;&gt;Cached KV&lt;/font&gt;" style="text;html=1;align=left;verticalAlign=middle;fontSize=29;" vertex="1" parent="1">
          <mxGeometry x="720" y="145" width="180" height="40" as="geometry" />
        </mxCell>
        <mxCell id="0aervZrcC1UVJmXJ-vZ2-2" value="&lt;font face=&quot;Times New Roman&quot;&gt;Q Compute with Cached KV&lt;/font&gt;" style="text;html=1;align=left;verticalAlign=middle;fontSize=29;" vertex="1" parent="1">
          <mxGeometry x="720" y="265" width="180" height="40" as="geometry" />
        </mxCell>
        <mxCell id="0aervZrcC1UVJmXJ-vZ2-3" value="&lt;font face=&quot;Times New Roman&quot;&gt;Compute Q, K, V&lt;/font&gt;" style="text;html=1;align=left;verticalAlign=middle;fontSize=29;" vertex="1" parent="1">
          <mxGeometry x="720" y="385" width="180" height="40" as="geometry" />
        </mxCell>
      </root>
    </mxGraphModel>
  </diagram>
</mxfile>
